<?xml version="1.0" encoding="UTF-8" standalone="no"?>
<!DOCTYPE svg PUBLIC "-//W3C//DTD SVG 1.1//EN" "http://www.w3.org/Graphics/SVG/1.1/DTD/svg11.dtd">
<svg width="100%" height="100%" viewBox="0 0 590 162" version="1.1" xmlns="http://www.w3.org/2000/svg" xmlns:xlink="http://www.w3.org/1999/xlink" xml:space="preserve" xmlns:serif="http://www.serif.com/" style="fill-rule:evenodd;clip-rule:evenodd;stroke-linecap:round;stroke-linejoin:round;stroke-miterlimit:10;">
    <g transform="matrix(0,-1,-1,0,323.4,258.348)">
        <path d="M199.296,113.526L220.452,113.526" style="fill:none;fill-rule:nonzero;stroke:black;stroke-width:0.5px;"/>
    </g>
    <g transform="matrix(0.936831,-0.349782,-0.349782,-0.936831,55.4383,238.056)">
        <path d="M213.578,115.46L263.003,115.46" style="fill:none;fill-rule:nonzero;stroke:black;stroke-width:0.5px;"/>
    </g>
    <g transform="matrix(1,0,0,1,0,-6.919)">
        <path d="M387.123,78.46L399.123,84.46L387.123,90.46C390.123,87.46 390.123,81.46 387.123,78.46Z"/>
    </g>
    <g transform="matrix(1,0,0,1,0,-6.919)">
        <path d="M374.028,84.46L389.523,84.46" style="fill:none;fill-rule:nonzero;stroke:black;stroke-width:2px;"/>
    </g>
    <g transform="matrix(1,0,0,1,0,-6.919)">
        <path d="M185.523,78.46L197.523,84.46L185.523,90.46C188.523,87.46 188.523,81.46 185.523,78.46Z"/>
    </g>
    <g transform="matrix(1,0,0,1,0,-6.919)">
        <path d="M181.288,84.46L187.923,84.46" style="fill:none;fill-rule:nonzero;stroke:black;stroke-width:2px;"/>
    </g>
    <g transform="matrix(1,0,0,1,0,-120.142)">
        <path d="M18.372,144.071L15.372,138.071L12.372,144.071C13.872,142.571 16.872,142.571 18.372,144.071Z"/>
    </g>
    <g transform="matrix(0,1,1,0,-63.8744,67.3819)">
        <path d="M-44.653,79.246L75.397,79.246" style="fill:none;fill-rule:nonzero;stroke:black;stroke-width:1px;stroke-dasharray:1,2,0,0;"/>
    </g>
    <g transform="matrix(1,0,0,1,0,123.557)">
        <path d="M174.169,22.222L180.169,19.222L174.169,16.221C175.669,17.722 175.669,20.722 174.169,22.222Z"/>
    </g>
    <g transform="matrix(-1,0,0,1,190.741,123.557)">
        <path d="M15.372,19.222L175.369,19.222" style="fill:none;fill-rule:nonzero;stroke:black;stroke-width:1px;stroke-dasharray:1,2,0,0;"/>
    </g>
    <g transform="matrix(1,0,0,1,0,-88.884)">
        <path d="M157.938,128.442L160.937,122.442L154.337,123.643C156.437,123.943 158.237,126.342 157.938,128.442Z"/>
    </g>
    <g transform="matrix(-0.799876,0.600165,0.600165,0.799876,111.765,-20.0502)">
        <path d="M-2.357,72.391L174.826,72.391" style="fill:none;fill-rule:nonzero;stroke:black;stroke-width:1px;stroke-dasharray:1,2,0,0;"/>
    </g>
    <g transform="matrix(1,0,0,1,0,-11.3817)">
        <path d="M26.217,109.014C26.217,109.014 33.748,115.547 38.532,116.803C43.246,118.041 49.122,116.991 54.058,117.691C73.315,120.423 95.585,122.869 113.97,114.46C123.715,110.004 128.519,98.992 131.171,89.618C131.754,87.559 134.624,83.104 134.164,81.003C133.369,77.371 130.116,72.418 128.716,68.558C126.056,61.221 124.33,53.703 116.097,51.798C110.547,50.513 103.915,59.098 103.635,63.757C103.158,71.698 102.294,82.504 95.365,88.185C91.179,91.616 83.279,93.277 77.928,93.784C63.49,95.15 42.187,79.268 30.217,93.11C27.933,95.752 26.131,99.348 25.554,102.703C25.023,105.786 25.52,106.237 26.217,109.014Z" style="fill:rgb(111,174,237);fill-opacity:0.8;"/>
    </g>
    <g transform="matrix(1,0,0,1,0,-0.4103)">
        <path d="M59.811,122.257C65.959,118.708 67.16,115.285 70.081,108.973C72.371,104.025 78.218,101.028 79.658,95.653C80.363,93.022 77.614,89.927 76.414,87.849C72.784,81.561 65.892,77.279 63.085,70.428C59.966,62.815 61.563,54.284 55.12,47.845C52.443,45.169 48.23,43.485 45.011,41.548C43.102,40.4 39.929,35.766 37.47,36.234C34.24,36.848 35.92,48.583 35.646,51.439C35.194,56.16 33.751,61.677 34.947,66.421C38.101,78.938 46.823,88.508 51.6,100.185C52.337,101.985 53.365,104.087 53.485,106.092C53.754,110.578 52.213,126.644 59.811,122.257" style="fill:rgb(93,202,166);fill-opacity:0.8;"/>
    </g>
    <text x="76.282px" y="155.481px" style="font-family:'HelveticaNeue', 'Helvetica Neue';font-size:13px;">IL-2Rα</text>
    <g transform="matrix(0,-1,1,0,0,0)">
        <text x="-97.717px" y="10.6px" style="font-family:'HelveticaNeue', 'Helvetica Neue';font-size:13px;">IL-2Rβ</text>
    </g>
    <g>
        <text x="160.918px" y="43.16px" style="font-family:'HelveticaNeue', 'Helvetica Neue';font-size:13px;">γ</text>
        <text x="166.963px" y="47.16px" style="font-family:'HelveticaNeue', 'Helvetica Neue';font-size:11px;">c</text>
    </g>
    <text x="462.992px" y="157.083px" style="font-family:'HelveticaNeue', 'Helvetica Neue';font-size:13px;">pST<tspan x="485.391px 492.619px 500.081px " y="157.083px 157.083px 157.083px ">AT5</tspan></text>
    <g transform="matrix(1,0,0,1,0,-27.5557)">
        <path d="M170.439,91.637C170.439,91.637 165.129,86.804 163.347,85.665C160.544,83.872 157.463,82.62 154.856,80.427C150.273,76.573 149.101,70.361 141.103,72.326C138.652,72.928 135.961,78.276 134.17,80.062C127.122,87.088 126.055,92.932 125.193,103.227C125.021,105.278 123.962,110.92 124.984,112.887C126.206,115.236 130.832,115.907 133.004,116.412C144.965,119.195 156.706,117.073 167.765,113.34C171.673,112.021 175.394,111.827 178.667,109.063C184.988,103.724 178.445,98.643 174.016,95.724C172.915,94.999 171.086,91.637 170.439,91.637Z" style="fill:rgb(238,189,113);fill-opacity:0.82;"/>
    </g>
    <g transform="matrix(1,0,0,1,0,-116.94)">
        <path d="M405.082,142.47L402.082,136.47L399.082,142.47C400.582,140.97 403.582,140.97 405.082,142.47Z"/>
    </g>
    <g transform="matrix(0,1,1,0,324.437,-317.727)">
        <path d="M342.057,77.645L462.107,77.645" style="fill:none;fill-rule:nonzero;stroke:black;stroke-width:1px;stroke-dasharray:1,2,0,0;"/>
    </g>
    <g transform="matrix(1,0,0,1,0,126.76)">
        <path d="M560.879,20.62L566.879,17.62L560.879,14.62C562.379,16.12 562.379,19.12 560.879,20.62Z"/>
    </g>
    <g transform="matrix(-1,0,0,1,964.161,126.76)">
        <path d="M402.082,17.62L562.079,17.62" style="fill:none;fill-rule:nonzero;stroke:black;stroke-width:1px;stroke-dasharray:1,2,0,0;"/>
    </g>
    <g transform="matrix(1,0,0,1,0,-126.54)">
        <path d="M409.882,147.27L406.882,141.27L403.882,147.27C405.382,145.77 408.382,145.77 409.882,147.27Z"/>
    </g>
    <g transform="matrix(0,1,1,0,324.437,-327.327)">
        <path d="M346.857,82.445L466.907,82.445" style="fill:none;fill-rule:nonzero;stroke:black;stroke-width:1px;stroke-dasharray:1,2,0,0;"/>
    </g>
    <g transform="matrix(1,0,0,1,0,117.16)">
        <path d="M565.679,25.42L571.679,22.42L565.679,19.42C567.179,20.92 567.179,23.92 565.679,25.42Z"/>
    </g>
    <g transform="matrix(-1,0,0,1,973.761,117.16)">
        <path d="M406.882,22.42L566.879,22.42" style="fill:none;fill-rule:nonzero;stroke:black;stroke-width:1px;stroke-dasharray:1,2,0,0;"/>
    </g>
    <g transform="matrix(1,0,0,1,0,-136.14)">
        <path d="M414.682,152.07L411.682,146.07L408.682,152.07C410.182,150.57 413.182,150.57 414.682,152.07Z"/>
    </g>
    <g transform="matrix(0,1,1,0,324.437,-336.927)">
        <path d="M351.657,87.245L471.707,87.245" style="fill:none;fill-rule:nonzero;stroke:black;stroke-width:1px;stroke-dasharray:1,2,0,0;"/>
    </g>
    <g transform="matrix(1,0,0,1,0,107.56)">
        <path d="M570.479,30.22L576.479,27.22L570.479,24.22C571.979,25.72 571.979,28.72 570.479,30.22Z"/>
    </g>
    <g transform="matrix(-1,0,0,1,983.361,107.56)">
        <path d="M411.682,27.22L571.679,27.22" style="fill:none;fill-rule:nonzero;stroke:black;stroke-width:1px;stroke-dasharray:1,2,0,0;"/>
    </g>
    <g transform="matrix(1,0,0,1,0,-145.74)">
        <path d="M419.482,156.87L416.482,150.87L413.482,156.87C414.982,155.37 417.982,155.37 419.482,156.87Z"/>
    </g>
    <g transform="matrix(0,1,1,0,324.437,-346.527)">
        <path d="M356.457,92.045L476.507,92.045" style="fill:none;fill-rule:nonzero;stroke:black;stroke-width:1px;stroke-dasharray:1,2,0,0;"/>
    </g>
    <g transform="matrix(1,0,0,1,0,97.9596)">
        <path d="M575.279,35.02L581.279,32.02L575.279,29.02C576.779,30.52 576.779,33.52 575.279,35.02Z"/>
    </g>
    <g transform="matrix(-1,0,0,1,992.961,97.9596)">
        <path d="M416.482,32.02L576.479,32.02" style="fill:none;fill-rule:nonzero;stroke:black;stroke-width:1px;stroke-dasharray:1,2,0,0;"/>
    </g>
    <g transform="matrix(1,0,0,1,0,-155.34)">
        <path d="M424.282,161.67L421.282,155.67L418.282,161.67C419.782,160.17 422.782,160.17 424.282,161.67Z"/>
    </g>
    <g transform="matrix(0,1,1,0,324.437,-356.127)">
        <path d="M361.257,96.845L481.307,96.845" style="fill:none;fill-rule:nonzero;stroke:black;stroke-width:1px;stroke-dasharray:1,2,0,0;"/>
    </g>
    <g transform="matrix(1,0,0,1,0,88.3596)">
        <path d="M580.079,39.82L586.079,36.82L580.079,33.82C581.579,35.32 581.579,38.32 580.079,39.82Z"/>
    </g>
    <g transform="matrix(-1,0,0,1,1002.56,88.3596)">
        <path d="M421.282,36.82L581.279,36.82" style="fill:none;fill-rule:nonzero;stroke:black;stroke-width:1px;stroke-dasharray:1,2,0,0;"/>
    </g>
    <g transform="matrix(1,0,0,1,0,-6.8777)">
        <path d="M374.028,71.971C374.028,65.09 368.441,59.503 361.56,59.503L210.343,59.503C203.462,59.503 197.875,65.09 197.875,71.971L197.875,96.907C197.875,103.788 203.462,109.375 210.343,109.375L361.56,109.375C368.441,109.375 374.028,103.788 374.028,96.907L374.028,71.971Z" style="fill:rgb(190,187,187);"/>
    </g>
    <g transform="matrix(1,0,0,1,0,53.182)">
        <path d="M402.796,90.636C475.168,89.639 448.862,17.834 476.288,17.733C503.715,17.632 488.09,90.429 540.408,91.186" style="fill:rgb(187,209,231);fill-opacity:0.49;"/>
    </g>
    <g transform="matrix(1,0,0,1,0,24.6623)">
        <path d="M402.806,119.362C402.353,106.41 416.451,17.976 431.783,40.716C448.406,65.372 433.244,118.264 485.562,119.021" style="fill:rgb(201,240,227);fill-opacity:0.49;"/>
    </g>
    <g transform="matrix(1,0,0,1,0,15.5423)">
        <path d="M406.406,123.922C405.953,110.97 420.051,22.536 435.383,45.276C452.006,69.932 436.844,122.824 489.162,123.581" style="fill:rgb(201,240,227);fill-opacity:0.49;"/>
    </g>
    <g transform="matrix(1,0,0,1,0,5.9423)">
        <path d="M411.686,128.722C411.233,115.77 425.331,27.336 440.663,50.076C457.286,74.732 442.124,127.624 494.442,128.381" style="fill:rgb(201,240,227);fill-opacity:0.49;"/>
    </g>
    <g transform="matrix(1,0,0,1,0,-3.6577)">
        <path d="M435.686,133.522C435.233,120.57 449.331,32.136 464.663,54.876C481.286,79.532 466.124,132.424 518.442,133.181" style="fill:rgb(201,240,227);fill-opacity:0.49;"/>
    </g>
    <g transform="matrix(1,0,0,1,0,-13.2577)">
        <path d="M462.086,138.322C461.633,125.37 475.731,36.936 491.063,59.676C507.686,84.332 492.524,137.224 544.842,137.981" style="fill:rgb(201,240,227);fill-opacity:0.49;"/>
    </g>
    <g transform="matrix(1,0,0,1,0,43.582)">
        <path d="M421.996,95.437C494.368,94.439 468.062,22.634 495.488,22.533C522.915,22.432 507.29,95.229 559.608,95.986" style="fill:rgb(187,209,231);fill-opacity:0.49;"/>
    </g>
    <g transform="matrix(1,0,0,1,0,33.982)">
        <path d="M443.596,100.237C486.406,99.664 477.662,27.434 505.088,27.333C532.515,27.232 516.89,100.029 569.208,100.786" style="fill:rgb(187,209,231);fill-opacity:0.49;"/>
    </g>
    <g transform="matrix(1,0,0,1,0,24.382)">
        <path d="M445.996,105.036C518.368,104.039 489.662,32.234 517.088,32.133C544.515,32.032 524.09,104.829 576.408,105.586" style="fill:rgb(187,209,231);fill-opacity:0.49;"/>
    </g>
    <g transform="matrix(1,0,0,1,0,14.782)">
        <path d="M462.796,109.837C535.168,108.839 499.262,37.034 526.688,36.933C554.115,36.832 531.29,109.629 583.608,110.386" style="fill:rgb(187,209,231);fill-opacity:0.49;"/>
    </g>
    <text x="206.712px" y="81.257px" style="font-family:'ArialMT', 'Arial', sans-serif;font-size:12px;">ODE binding/trafﬁcking model</text>
    <text x="198.082px" y="35.37px" style="font-family:'ArialMT', 'Arial', sans-serif;font-size:12px;fill:rgb(5,104,204);">Cytokine <tspan x="253.112px 259.997px 262.663px " y="35.37px 35.37px 35.37px ">Tim</tspan>e</text>
    <g transform="matrix(0,1,-1,0,0,0)">
        <text x="60.406px" y="-200.524px" style="font-family:'ArialMT', 'Arial', sans-serif;font-size:16px;">........</text>
    </g>
    <text x="207.639px" y="57.247px" style="font-family:'ArialMT', 'Arial', sans-serif;font-size:16px;fill:rgb(5,104,204);">..</text>
    <g transform="matrix(0,1,-1,0,0,0)">
        <text x="75.529px" y="-369.317px" style="font-family:'ArialMT', 'Arial', sans-serif;font-size:16px;">.</text>
    </g>
    <g>
        <text x="426.782px" y="11.588px" style="font-family:'ArialMT', 'Arial', sans-serif;font-size:12px;">pST<tspan x="447.899px 455.012px 462.343px " y="11.588px 11.588px 11.588px ">AT5</tspan> distributions across:</text>
        <text x="463.782px" y="23.98px" style="font-family:'ArialMT', 'Arial', sans-serif;font-size:12px;">cell types</text>
        <text x="463.782px" y="36.373px" style="font-family:'ArialMT', 'Arial', sans-serif;font-size:12px;">times</text>
        <text x="463.782px" y="48.766px" style="font-family:'ArialMT', 'Arial', sans-serif;font-size:12px;">ligands</text>
        <text x="463.782px" y="61.158px" style="font-family:'ArialMT', 'Arial', sans-serif;font-size:12px;">concentrations</text>
    </g>
</svg>
